{
    "asset": {
        "generator": "COLLADA2GLTF",
        "version": "2.0"
    },
    "scenes": [
        {
            "nodes": [
                0
            ]
        }
    ],
    "scene": 0,
    "nodes": [
        {
            "children": [
                8,
                7,
                6,
                5,
                4,
                3,
                2,
                1
            ],
            "matrix": [
                1.0,
                0.0,
                0.0,
                0.0,
                0.0,
                0.0,
                -1.0,
                0.0,
                0.0,
                1.0,
                0.0,
                0.0,
                0.0,
                0.0,
                0.0,
                1.0
            ],
            "name": "Z_UP"
        },
        {
            "mesh": 0,
            "name": "1zsFittbH2hBUSaLfoZE0J"
        },
        {
            "mesh": 1,
            "name": "1zsFittbH2hBUSaLfoZE0$"
        },
        {
            "mesh": 2,
            "matrix": [
                -1.0,
                0.0,
                0.0,
                0.0,
                0.0,
                -1.0,
                0.0,
                0.0,
                0.0,
                0.0,
                1.0,
                0.0,
                1.6249265670776368,
                1.8715291023254397,
                0.0,
                1.0
            ],
            "name": "1zsFittbH2hBUSaLfoZEA7"
        },
        {
            "mesh": 3,
            "matrix": [
                0.0,
                -1.0,
                0.0,
                0.0,
                1.0,
                0.0,
                0.0,
                0.0,
                0.0,
                0.0,
                1.0,
                0.0,
                1.7249265909194949,
                4.9763288497924809,
                0.0,
                1.0
            ],
            "name": "1zsFittbH2hBUSaLfoZEAl"
        },
        {
            "mesh": 4,
            "matrix": [
                0.0,
                1.0,
                0.0,
                0.0,
                -1.0,
                0.0,
                0.0,
                0.0,
                0.0,
                0.0,
                1.0,
                0.0,
                5.040126800537109,
                -0.22367089986801148,
                0.0,
                1.0
            ],
            "name": "1zsFittbH2hBUSaLfoZE9q"
        },
        {
            "mesh": 5,
            "matrix": [
                -1.0,
                0.0,
                0.0,
                0.0,
                0.0,
                -1.0,
                0.0,
                0.0,
                0.0,
                0.0,
                1.0,
                0.0,
                5.140126705169678,
                5.076329231262207,
                0.0,
                1.0
            ],
            "name": "1zsFittbH2hBUSaLfoZE9p"
        },
        {
            "mesh": 6,
            "matrix": [
                0.0,
                -1.0,
                0.0,
                0.0,
                1.0,
                0.0,
                0.0,
                0.0,
                0.0,
                0.0,
                1.0,
                0.0,
                -0.15987342596054078,
                5.176329135894775,
                0.0,
                1.0
            ],
            "name": "1zsFittbH2hBUSaLfoZE9o"
        },
        {
            "mesh": 7,
            "matrix": [
                1.0,
                0.0,
                0.0,
                0.0,
                0.0,
                1.0,
                0.0,
                0.0,
                0.0,
                0.0,
                1.0,
                0.0,
                -0.2598734200000763,
                -0.12367088347673416,
                0.0,
                1.0
            ],
            "name": "1zsFittbH2hBUSaLfoZE9n"
        }
    ],
    "meshes": [
        {
            "primitives": [
                {
                    "attributes": {
                        "NORMAL": 1,
                        "POSITION": 2
                    },
                    "indices": 0,
                    "mode": 4,
                    "material": 0
                }
            ],
            "name": "representation-1019"
        },
        {
            "primitives": [
                {
                    "attributes": {
                        "NORMAL": 4,
                        "POSITION": 5
                    },
                    "indices": 3,
                    "mode": 4,
                    "material": 1
                }
            ],
            "name": "representation-920"
        },
        {
            "primitives": [
                {
                    "attributes": {
                        "NORMAL": 7,
                        "POSITION": 8
                    },
                    "indices": 6,
                    "mode": 4,
                    "material": 2
                }
            ],
            "name": "representation-865"
        },
        {
            "primitives": [
                {
                    "attributes": {
                        "NORMAL": 10,
                        "POSITION": 11
                    },
                    "indices": 9,
                    "mode": 4,
                    "material": 3
                }
            ],
            "name": "representation-698-openings-728-753"
        },
        {
            "primitives": [
                {
                    "attributes": {
                        "NORMAL": 13,
                        "POSITION": 14
                    },
                    "indices": 12,
                    "mode": 4,
                    "material": 4
                }
            ],
            "name": "representation-565-openings-595"
        },
        {
            "primitives": [
                {
                    "attributes": {
                        "NORMAL": 16,
                        "POSITION": 17
                    },
                    "indices": 15,
                    "mode": 4,
                    "material": 5
                }
            ],
            "name": "representation-479"
        },
        {
            "primitives": [
                {
                    "attributes": {
                        "NORMAL": 19,
                        "POSITION": 20
                    },
                    "indices": 18,
                    "mode": 4,
                    "material": 6
                }
            ],
            "name": "representation-340-openings-372"
        },
        {
            "primitives": [
                {
                    "attributes": {
                        "NORMAL": 22,
                        "POSITION": 23
                    },
                    "indices": 21,
                    "mode": 4,
                    "material": 7
                }
            ],
            "name": "representation-165"
        }
    ],
    "accessors": [
        {
            "bufferView": 0,
            "byteOffset": 0,
            "componentType": 5123,
            "count": 36,
            "max": [
                23
            ],
            "min": [
                0
            ],
            "type": "SCALAR"
        },
        {
            "bufferView": 1,
            "byteOffset": 0,
            "componentType": 5126,
            "count": 24,
            "max": [
                1.0,
                1.0,
                1.0
            ],
            "min": [
                -1.0,
                -1.0,
                -1.0
            ],
            "type": "VEC3"
        },
        {
            "bufferView": 1,
            "byteOffset": 288,
            "componentType": 5126,
            "count": 24,
            "max": [
                6.955004215240479,
                7.353313446044922,
                0.0
            ],
            "min": [
                -1.644995927810669,
                -2.746686220169068,
                -0.30000001192092898
            ],
            "type": "VEC3"
        },
        {
            "bufferView": 0,
            "byteOffset": 72,
            "componentType": 5123,
            "count": 36,
            "max": [
                23
            ],
            "min": [
                0
            ],
            "type": "SCALAR"
        },
        {
            "bufferView": 1,
            "byteOffset": 576,
            "componentType": 5126,
            "count": 24,
            "max": [
                1.0,
                1.0,
                1.0
            ],
            "min": [
                -1.0,
                -1.0,
                -1.0
            ],
            "type": "VEC3"
        },
        {
            "bufferView": 1,
            "byteOffset": 864,
            "componentType": 5126,
            "count": 24,
            "max": [
                5.140126705169678,
                5.176329135894775,
                3.5
            ],
            "min": [
                -0.2598734200000763,
                -0.22367089986801148,
                3.200000047683716
            ],
            "type": "VEC3"
        },
        {
            "bufferView": 0,
            "byteOffset": 144,
            "componentType": 5123,
            "count": 36,
            "max": [
                23
            ],
            "min": [
                0
            ],
            "type": "SCALAR"
        },
        {
            "bufferView": 1,
            "byteOffset": 1152,
            "componentType": 5126,
            "count": 24,
            "max": [
                1.0,
                1.0,
                1.0
            ],
            "min": [
                -1.0,
                -1.0,
                -1.0
            ],
            "type": "VEC3"
        },
        {
            "bufferView": 1,
            "byteOffset": 1440,
            "componentType": 5126,
            "count": 24,
            "max": [
                1.6847999095916749,
                0.10000000149011612,
                3.200000047683716
            ],
            "min": [
                0.0,
                -0.10000000149011612,
                0.0
            ],
            "type": "VEC3"
        },
        {
            "bufferView": 0,
            "byteOffset": 216,
            "componentType": 5123,
            "count": 132,
            "max": [
                71
            ],
            "min": [
                0
            ],
            "type": "SCALAR"
        },
        {
            "bufferView": 1,
            "byteOffset": 1728,
            "componentType": 5126,
            "count": 72,
            "max": [
                1.0,
                1.0,
                1.0
            ],
            "min": [
                -1.0,
                -1.0,
                -1.0
            ],
            "type": "VEC3"
        },
        {
            "bufferView": 1,
            "byteOffset": 2592,
            "componentType": 5126,
            "count": 72,
            "max": [
                5.0,
                0.10000000149011612,
                3.200000047683716
            ],
            "min": [
                0.0,
                -0.10000000149011612,
                0.0
            ],
            "type": "VEC3"
        },
        {
            "bufferView": 0,
            "byteOffset": 480,
            "componentType": 5123,
            "count": 96,
            "max": [
                47
            ],
            "min": [
                0
            ],
            "type": "SCALAR"
        },
        {
            "bufferView": 1,
            "byteOffset": 3456,
            "componentType": 5126,
            "count": 48,
            "max": [
                1.0,
                1.0,
                1.0
            ],
            "min": [
                -1.0,
                -1.0,
                -1.0
            ],
            "type": "VEC3"
        },
        {
            "bufferView": 1,
            "byteOffset": 4032,
            "componentType": 5126,
            "count": 48,
            "max": [
                5.200000286102295,
                0.10000000149011612,
                3.200000047683716
            ],
            "min": [
                0.0,
                -0.10000000149011612,
                0.0
            ],
            "type": "VEC3"
        },
        {
            "bufferView": 0,
            "byteOffset": 672,
            "componentType": 5123,
            "count": 36,
            "max": [
                23
            ],
            "min": [
                0
            ],
            "type": "SCALAR"
        },
        {
            "bufferView": 1,
            "byteOffset": 4608,
            "componentType": 5126,
            "count": 24,
            "max": [
                1.0,
                1.0,
                1.0
            ],
            "min": [
                -1.0,
                -1.0,
                -1.0
            ],
            "type": "VEC3"
        },
        {
            "bufferView": 1,
            "byteOffset": 4896,
            "componentType": 5126,
            "count": 24,
            "max": [
                5.200000286102295,
                0.10000000149011612,
                3.200000047683716
            ],
            "min": [
                0.0,
                -0.10000000149011612,
                0.0
            ],
            "type": "VEC3"
        },
        {
            "bufferView": 0,
            "byteOffset": 744,
            "componentType": 5123,
            "count": 84,
            "max": [
                47
            ],
            "min": [
                0
            ],
            "type": "SCALAR"
        },
        {
            "bufferView": 1,
            "byteOffset": 5184,
            "componentType": 5126,
            "count": 48,
            "max": [
                1.0,
                1.0,
                1.0
            ],
            "min": [
                -1.0,
                -1.0,
                -1.0
            ],
            "type": "VEC3"
        },
        {
            "bufferView": 1,
            "byteOffset": 5760,
            "componentType": 5126,
            "count": 48,
            "max": [
                5.200000286102295,
                0.10000000149011612,
                3.200000047683716
            ],
            "min": [
                0.0,
                -0.10000000149011612,
                0.0
            ],
            "type": "VEC3"
        },
        {
            "bufferView": 0,
            "byteOffset": 912,
            "componentType": 5123,
            "count": 36,
            "max": [
                23
            ],
            "min": [
                0
            ],
            "type": "SCALAR"
        },
        {
            "bufferView": 1,
            "byteOffset": 6336,
            "componentType": 5126,
            "count": 24,
            "max": [
                1.0,
                1.0,
                1.0
            ],
            "min": [
                -1.0,
                -1.0,
                -1.0
            ],
            "type": "VEC3"
        },
        {
            "bufferView": 1,
            "byteOffset": 6624,
            "componentType": 5126,
            "count": 24,
            "max": [
                5.200000286102295,
                0.10000000149011612,
                3.200000047683716
            ],
            "min": [
                0.0,
                -0.10000000149011612,
                0.0
            ],
            "type": "VEC3"
        }
    ],
    "materials": [
        {
            "pbrMetallicRoughness": {
                "baseColorFactor": [
                    0.4000000059604645,
                    0.4000000059604645,
                    0.4000000059604645,
                    1.0
                ],
                "metallicFactor": 0.0
            },
            "name": "IfcSlab-fx"
        },
        {
            "pbrMetallicRoughness": {
                "baseColorFactor": [
                    0.4000000059604645,
                    0.4000000059604645,
                    0.4000000059604645,
                    1.0
                ],
                "metallicFactor": 0.0
            },
            "name": "IfcSlab-fx"
        },
        {
            "pbrMetallicRoughness": {
                "baseColorFactor": [
                    0.4980392158031464,
                    0.4980392158031464,
                    0.4980392158031464,
                    1.0
                ],
                "metallicFactor": 0.0
            },
            "name": "surface-style-158-default-wall-fx"
        },
        {
            "pbrMetallicRoughness": {
                "baseColorFactor": [
                    0.4980392158031464,
                    0.4980392158031464,
                    0.4980392158031464,
                    1.0
                ],
                "metallicFactor": 0.0
            },
            "name": "surface-style-158-default-wall-fx"
        },
        {
            "pbrMetallicRoughness": {
                "baseColorFactor": [
                    0.4980392158031464,
                    0.4980392158031464,
                    0.4980392158031464,
                    1.0
                ],
                "metallicFactor": 0.0
            },
            "name": "surface-style-158-default-wall-fx"
        },
        {
            "pbrMetallicRoughness": {
                "baseColorFactor": [
                    0.4980392158031464,
                    0.4980392158031464,
                    0.4980392158031464,
                    1.0
                ],
                "metallicFactor": 0.0
            },
            "name": "surface-style-158-default-wall-fx"
        },
        {
            "pbrMetallicRoughness": {
                "baseColorFactor": [
                    0.4980392158031464,
                    0.4980392158031464,
                    0.4980392158031464,
                    1.0
                ],
                "metallicFactor": 0.0
            },
            "name": "surface-style-158-default-wall-fx"
        },
        {
            "pbrMetallicRoughness": {
                "baseColorFactor": [
                    0.4980392158031464,
                    0.4980392158031464,
                    0.4980392158031464,
                    1.0
                ],
                "metallicFactor": 0.0
            },
            "name": "surface-style-158-default-wall-fx"
        }
    ],
    "bufferViews": [
        {
            "buffer": 0,
            "byteOffset": 6912,
            "byteLength": 984,
            "target": 34963
        },
        {
            "buffer": 0,
            "byteOffset": 0,
            "byteLength": 6912,
            "byteStride": 12,
            "target": 34962
        }
    ],
    "buffers": [
        {
            "byteLength": 7896,
            "uri": "data:application/octet-stream;base64,"
        }
    ]
}
