{
    "asset": {
        "generator": "COLLADA2GLTF",
        "version": "2.0"
    },
    "scenes": [
        {
            "nodes": [
                0
            ]
        }
    ],
    "scene": 0,
    "nodes": [
        {
            "children": [
                8,
                7,
                6,
                5,
                4,
                3,
                2,
                1
            ],
            "matrix": [
                1.0,
                0.0,
                0.0,
                0.0,
                0.0,
                0.0,
                -1.0,
                0.0,
                0.0,
                1.0,
                0.0,
                0.0,
                0.0,
                0.0,
                0.0,
                1.0
            ],
            "name": "Z_UP"
        },
        {
            "mesh": 0,
            "name": "1023_FloorFloor12923"
        },
        {
            "mesh": 1,
            "name": "924_FloorFloor12887"
        },
        {
            "mesh": 2,
            "matrix": [
                -1.0,
                0.0,
                0.0,
                0.0,
                0.0,
                -1.0,
                0.0,
                0.0,
                0.0,
                0.0,
                1.0,
                0.0,
                1.624927043914795,
                1.87152898311615,
                0.0,
                1.0
            ],
            "name": "869_BasicWallWall200mm2559"
        },
        {
            "mesh": 3,
            "matrix": [
                0.0,
                -1.0,
                0.0,
                0.0,
                1.0,
                0.0,
                0.0,
                0.0,
                0.0,
                0.0,
                1.0,
                0.0,
                1.7249269485473633,
                4.9763288497924809,
                0.0,
                1.0
            ],
            "name": "702_BasicWallWall200mm2519"
        },
        {
            "mesh": 4,
            "matrix": [
                0.0,
                1.0,
                0.0,
                0.0,
                -1.0,
                0.0,
                0.0,
                0.0,
                0.0,
                0.0,
                1.0,
                0.0,
                5.040126800537109,
                -0.22367089986801148,
                0.0,
                1.0
            ],
            "name": "569_BasicWallWall200mm2316"
        },
        {
            "mesh": 5,
            "matrix": [
                -1.0,
                0.0,
                0.0,
                0.0,
                0.0,
                -1.0,
                0.0,
                0.0,
                0.0,
                0.0,
                1.0,
                0.0,
                5.140127182006836,
                5.076328754425049,
                0.0,
                1.0
            ],
            "name": "483_BasicWallWall200mm2315"
        },
        {
            "mesh": 6,
            "matrix": [
                0.0,
                -1.0,
                0.0,
                0.0,
                1.0,
                0.0,
                0.0,
                0.0,
                0.0,
                0.0,
                1.0,
                0.0,
                -0.1598733961582184,
                5.176329135894775,
                0.0,
                1.0
            ],
            "name": "344_BasicWallWall200mm2314"
        },
        {
            "mesh": 7,
            "matrix": [
                1.0,
                0.0,
                0.0,
                0.0,
                0.0,
                1.0,
                0.0,
                0.0,
                0.0,
                0.0,
                1.0,
                0.0,
                -0.2598733901977539,
                -0.12367089837789536,
                0.0,
                1.0
            ],
            "name": "172_BasicWallWall200mm2313"
        }
    ],
    "meshes": [
        {
            "primitives": [
                {
                    "attributes": {
                        "NORMAL": 1,
                        "POSITION": 2
                    },
                    "indices": 0,
                    "mode": 4,
                    "material": 0
                }
            ],
            "name": "1023_FloorFloor12923"
        },
        {
            "primitives": [
                {
                    "attributes": {
                        "NORMAL": 4,
                        "POSITION": 5
                    },
                    "indices": 3,
                    "mode": 4,
                    "material": 1
                }
            ],
            "name": "924_FloorFloor12887"
        },
        {
            "primitives": [
                {
                    "attributes": {
                        "NORMAL": 7,
                        "POSITION": 8
                    },
                    "indices": 6,
                    "mode": 4,
                    "material": 2
                }
            ],
            "name": "869_BasicWallWall200mm2559"
        },
        {
            "primitives": [
                {
                    "attributes": {
                        "NORMAL": 10,
                        "POSITION": 11
                    },
                    "indices": 9,
                    "mode": 4,
                    "material": 3
                }
            ],
            "name": "702_BasicWallWall200mm2519"
        },
        {
            "primitives": [
                {
                    "attributes": {
                        "NORMAL": 13,
                        "POSITION": 14
                    },
                    "indices": 12,
                    "mode": 4,
                    "material": 4
                }
            ],
            "name": "569_BasicWallWall200mm2316"
        },
        {
            "primitives": [
                {
                    "attributes": {
                        "NORMAL": 16,
                        "POSITION": 17
                    },
                    "indices": 15,
                    "mode": 4,
                    "material": 5
                }
            ],
            "name": "483_BasicWallWall200mm2315"
        },
        {
            "primitives": [
                {
                    "attributes": {
                        "NORMAL": 19,
                        "POSITION": 20
                    },
                    "indices": 18,
                    "mode": 4,
                    "material": 6
                }
            ],
            "name": "344_BasicWallWall200mm2314"
        },
        {
            "primitives": [
                {
                    "attributes": {
                        "NORMAL": 22,
                        "POSITION": 23
                    },
                    "indices": 21,
                    "mode": 4,
                    "material": 7
                }
            ],
            "name": "172_BasicWallWall200mm2313"
        }
    ],
    "accessors": [
        {
            "bufferView": 0,
            "byteOffset": 0,
            "componentType": 5123,
            "count": 36,
            "max": [
                23
            ],
            "min": [
                0
            ],
            "type": "SCALAR"
        },
        {
            "bufferView": 1,
            "byteOffset": 0,
            "componentType": 5126,
            "count": 24,
            "max": [
                1.0,
                1.0,
                1.0
            ],
            "min": [
                -1.0,
                -1.0,
                -1.0
            ],
            "type": "VEC3"
        },
        {
            "bufferView": 1,
            "byteOffset": 288,
            "componentType": 5126,
            "count": 24,
            "max": [
                6.955004215240479,
                7.35331392288208,
                0.0
            ],
            "min": [
                -1.6449960470199586,
                -2.7466859817504885,
                -0.30000001192092898
            ],
            "type": "VEC3"
        },
        {
            "bufferView": 0,
            "byteOffset": 72,
            "componentType": 5123,
            "count": 36,
            "max": [
                23
            ],
            "min": [
                0
            ],
            "type": "SCALAR"
        },
        {
            "bufferView": 1,
            "byteOffset": 576,
            "componentType": 5126,
            "count": 24,
            "max": [
                1.0,
                1.0,
                1.0
            ],
            "min": [
                -1.0,
                -1.0,
                -1.0
            ],
            "type": "VEC3"
        },
        {
            "bufferView": 1,
            "byteOffset": 864,
            "componentType": 5126,
            "count": 24,
            "max": [
                5.140127182006836,
                5.176329135894775,
                3.5
            ],
            "min": [
                -0.2598733901977539,
                -0.22367089986801148,
                3.200000047683716
            ],
            "type": "VEC3"
        },
        {
            "bufferView": 0,
            "byteOffset": 144,
            "componentType": 5123,
            "count": 36,
            "max": [
                23
            ],
            "min": [
                0
            ],
            "type": "SCALAR"
        },
        {
            "bufferView": 1,
            "byteOffset": 1152,
            "componentType": 5126,
            "count": 24,
            "max": [
                1.0,
                1.0,
                1.0
            ],
            "min": [
                -1.0,
                -1.0,
                -1.0
            ],
            "type": "VEC3"
        },
        {
            "bufferView": 1,
            "byteOffset": 1440,
            "componentType": 5126,
            "count": 24,
            "max": [
                1.6847999095916749,
                0.10000000149011612,
                3.200000047683716
            ],
            "min": [
                0.0,
                -0.10000000149011612,
                0.0
            ],
            "type": "VEC3"
        },
        {
            "bufferView": 0,
            "byteOffset": 216,
            "componentType": 5123,
            "count": 144,
            "max": [
                75
            ],
            "min": [
                0
            ],
            "type": "SCALAR"
        },
        {
            "bufferView": 1,
            "byteOffset": 1728,
            "componentType": 5126,
            "count": 76,
            "max": [
                1.0,
                1.0,
                1.0
            ],
            "min": [
                -1.0,
                -1.0,
                -1.0
            ],
            "type": "VEC3"
        },
        {
            "bufferView": 1,
            "byteOffset": 2640,
            "componentType": 5126,
            "count": 76,
            "max": [
                5.0,
                0.10000000149011612,
                3.200000047683716
            ],
            "min": [
                0.0,
                -0.10000000149011612,
                0.0
            ],
            "type": "VEC3"
        },
        {
            "bufferView": 0,
            "byteOffset": 504,
            "componentType": 5123,
            "count": 102,
            "max": [
                49
            ],
            "min": [
                0
            ],
            "type": "SCALAR"
        },
        {
            "bufferView": 1,
            "byteOffset": 3552,
            "componentType": 5126,
            "count": 50,
            "max": [
                1.0,
                1.0,
                1.0
            ],
            "min": [
                -1.0,
                -1.0,
                -1.0
            ],
            "type": "VEC3"
        },
        {
            "bufferView": 1,
            "byteOffset": 4152,
            "componentType": 5126,
            "count": 50,
            "max": [
                5.200000286102295,
                0.10000000149011612,
                3.200000047683716
            ],
            "min": [
                0.0,
                -0.10000000149011612,
                0.0
            ],
            "type": "VEC3"
        },
        {
            "bufferView": 0,
            "byteOffset": 708,
            "componentType": 5123,
            "count": 54,
            "max": [
                29
            ],
            "min": [
                0
            ],
            "type": "SCALAR"
        },
        {
            "bufferView": 1,
            "byteOffset": 4752,
            "componentType": 5126,
            "count": 30,
            "max": [
                1.0,
                1.0,
                1.0
            ],
            "min": [
                -1.0,
                -1.0,
                -1.0
            ],
            "type": "VEC3"
        },
        {
            "bufferView": 1,
            "byteOffset": 5112,
            "componentType": 5126,
            "count": 30,
            "max": [
                5.200000286102295,
                0.10000000149011612,
                3.200000047683716
            ],
            "min": [
                0.0,
                -0.10000000149011612,
                0.0
            ],
            "type": "VEC3"
        },
        {
            "bufferView": 0,
            "byteOffset": 816,
            "componentType": 5123,
            "count": 102,
            "max": [
                53
            ],
            "min": [
                0
            ],
            "type": "SCALAR"
        },
        {
            "bufferView": 1,
            "byteOffset": 5472,
            "componentType": 5126,
            "count": 54,
            "max": [
                1.0,
                1.0,
                1.0
            ],
            "min": [
                -1.0,
                -1.0,
                -1.0
            ],
            "type": "VEC3"
        },
        {
            "bufferView": 1,
            "byteOffset": 6120,
            "componentType": 5126,
            "count": 54,
            "max": [
                5.200000286102295,
                0.10000000149011612,
                3.200000047683716
            ],
            "min": [
                0.0,
                -0.10000000149011612,
                0.0
            ],
            "type": "VEC3"
        },
        {
            "bufferView": 0,
            "byteOffset": 1020,
            "componentType": 5123,
            "count": 54,
            "max": [
                29
            ],
            "min": [
                0
            ],
            "type": "SCALAR"
        },
        {
            "bufferView": 1,
            "byteOffset": 6768,
            "componentType": 5126,
            "count": 30,
            "max": [
                1.0,
                1.0,
                1.0
            ],
            "min": [
                -1.0,
                -1.0,
                -1.0
            ],
            "type": "VEC3"
        },
        {
            "bufferView": 1,
            "byteOffset": 7128,
            "componentType": 5126,
            "count": 30,
            "max": [
                5.200000286102295,
                0.10000000149011612,
                3.200000047683716
            ],
            "min": [
                0.0,
                -0.10000000149011612,
                0.0
            ],
            "type": "VEC3"
        }
    ],
    "materials": [
        {
            "pbrMetallicRoughness": {
                "baseColorFactor": [
                    0.4000000059604645,
                    0.4000000059604645,
                    0.4000000059604645,
                    1.0
                ],
                "metallicFactor": 0.0
            },
            "name": "IfcSlab-fx"
        },
        {
            "pbrMetallicRoughness": {
                "baseColorFactor": [
                    0.4000000059604645,
                    0.4000000059604645,
                    0.4000000059604645,
                    1.0
                ],
                "metallicFactor": 0.0
            },
            "name": "IfcSlab-fx"
        },
        {
            "pbrMetallicRoughness": {
                "baseColorFactor": [
                    0.9000000357627869,
                    0.9000000357627869,
                    0.9000000357627869,
                    1.0
                ],
                "metallicFactor": 0.0
            },
            "name": "IfcWallStandardCase-fx"
        },
        {
            "pbrMetallicRoughness": {
                "baseColorFactor": [
                    0.9000000357627869,
                    0.9000000357627869,
                    0.9000000357627869,
                    1.0
                ],
                "metallicFactor": 0.0
            },
            "name": "IfcWallStandardCase-fx"
        },
        {
            "pbrMetallicRoughness": {
                "baseColorFactor": [
                    0.9000000357627869,
                    0.9000000357627869,
                    0.9000000357627869,
                    1.0
                ],
                "metallicFactor": 0.0
            },
            "name": "IfcWallStandardCase-fx"
        },
        {
            "pbrMetallicRoughness": {
                "baseColorFactor": [
                    0.9000000357627869,
                    0.9000000357627869,
                    0.9000000357627869,
                    1.0
                ],
                "metallicFactor": 0.0
            },
            "name": "IfcWallStandardCase-fx"
        },
        {
            "pbrMetallicRoughness": {
                "baseColorFactor": [
                    0.9000000357627869,
                    0.9000000357627869,
                    0.9000000357627869,
                    1.0
                ],
                "metallicFactor": 0.0
            },
            "name": "IfcWallStandardCase-fx"
        },
        {
            "pbrMetallicRoughness": {
                "baseColorFactor": [
                    0.9000000357627869,
                    0.9000000357627869,
                    0.9000000357627869,
                    1.0
                ],
                "metallicFactor": 0.0
            },
            "name": "IfcWallStandardCase-fx"
        }
    ],
    "bufferViews": [
        {
            "buffer": 0,
            "byteOffset": 7488,
            "byteLength": 1128,
            "target": 34963
        },
        {
            "buffer": 0,
            "byteOffset": 0,
            "byteLength": 7488,
            "byteStride": 12,
            "target": 34962
        }
    ],
    "buffers": [
        {
            "byteLength": 8616,
            "uri": "data:application/octet-stream;base64,"
        }
    ]
}
